<?xml version="1.0" standalone="no"?>
<!DOCTYPE svg PUBLIC "-//W3C//DTD SVG 20010904//EN"
 "http://www.w3.org/TR/2001/REC-SVG-20010904/DTD/svg10.dtd">
<svg version="1.0" xmlns="http://www.w3.org/2000/svg"
 width="400.000000pt" height="400.000000pt" viewBox="0 0 400.000000 400.000000"
 preserveAspectRatio="xMidYMid meet">
<metadata>
Created by potrace 1.14, written by Peter Selinger 2001-2017
</metadata>
<g transform="translate(0.000000,400.000000) scale(0.100000,-0.100000)"
fill="#000000" stroke="none">
<path d="M0 2000 l0 -2000 2000 0 2000 0 0 2000 0 2000 -2000 0 -2000 0 0
-2000z m2440 1515 c654 -88 956 -391 1046 -1050 26 -187 26 -686 0 -870 -91
-656 -379 -942 -1036 -1032 -193 -26 -697 -26 -890 0 -672 92 -957 378 -1052
1057 -21 150 -17 722 5 873 70 464 238 730 562 888 158 76 364 127 612 149
153 13 608 5 753 -15z"/>
<path d="M1715 3360 c-666 -56 -941 -289 -1031 -875 -22 -145 -33 -433 -23
-635 20 -446 104 -699 288 -873 200 -189 508 -267 1051 -267 1039 0 1339 296
1340 1318 0 409 -58 717 -171 908 -19 32 -66 92 -106 134 -140 148 -341 234
-648 275 -135 19 -550 27 -700 15z m383 -407 c15 -13 67 -177 198 -618 97
-330 183 -617 190 -638 7 -20 11 -44 8 -52 -7 -16 -93 -44 -224 -72 -69 -15
-123 -18 -285 -15 -110 1 -224 3 -254 5 l-55 2 -33 -105 c-18 -58 -45 -147
-59 -197 -19 -65 -32 -94 -45 -98 -20 -7 -129 20 -171 41 -16 8 -28 23 -28 34
0 28 188 552 204 568 10 11 26 8 87 -12 120 -40 194 -50 369 -50 176 0 250 12
250 41 0 20 -241 906 -249 915 -4 4 -55 -171 -115 -390 -59 -218 -114 -407
-122 -420 -12 -18 -20 -21 -42 -16 -59 15 -130 46 -136 59 -3 9 12 73 34 143
21 70 89 294 150 497 68 228 117 375 127 383 27 20 176 16 201 -5z"/>
</g>
</svg>
